<?xml version="1.0" standalone="no"?>
<!DOCTYPE svg PUBLIC "-//W3C//DTD SVG 20010904//EN"
 "http://www.w3.org/TR/2001/REC-SVG-20010904/DTD/svg10.dtd">
<svg version="1.0" xmlns="http://www.w3.org/2000/svg"
 width="50.000000pt" height="50.000000pt" viewBox="0 0 50.000000 50.000000"
 preserveAspectRatio="xMidYMid meet">

<g transform="translate(0.000000,50.000000) scale(0.100000,-0.100000)"
fill="#000000" stroke="none">
<path d="M200 488 c-49 -14 -60 -26 -60 -64 l0 -33 55 -3 c95 -5 68 -23 -40
-26 -113 -3 -129 -11 -145 -74 -20 -72 21 -158 75 -158 22 0 25 4 25 39 0 24
8 48 21 65 19 25 25 26 108 26 115 0 124 7 129 99 5 89 -8 114 -72 130 -51 13
-49 13 -96 -1z m8 -51 c4 -20 -25 -34 -40 -19 -15 15 -1 44 19 40 10 -2 19
-11 21 -21z"/>
<path d="M390 331 c0 -24 -8 -48 -21 -65 -19 -25 -25 -26 -108 -26 -114 0
-121 -6 -121 -118 0 -80 0 -82 30 -97 51 -27 171 -15 192 18 4 7 8 24 8 40 0
26 -1 27 -60 27 -47 0 -60 3 -60 15 0 12 18 15 98 15 53 0 102 4 108 8 6 4 19
21 28 39 39 78 -2 183 -73 183 -18 0 -21 -6 -21 -39z m-52 -264 c4 -21 -27
-35 -38 -17 -12 19 0 42 19 38 9 -2 17 -11 19 -21z"/>
</g>
</svg>
